<svg xmlns="http://www.w3.org/2000/svg" xmlns:xlink="http://www.w3.org/1999/xlink" width="1000" zoomAndPan="magnify" viewBox="0 0 750 749.999995" height="1000" preserveAspectRatio="xMidYMid meet" version="1.0"><path d="M 515.773438 130.746094 C 662.296875 215.382812 656.714844 205.707031 656.714844 374.980469 C 656.714844 544.25 662.296875 534.574219 515.773438 619.214844 C 369.246094 703.847656 380.417969 703.847656 233.890625 619.214844 C 87.367188 534.574219 92.949219 544.25 92.949219 374.980469 C 92.949219 205.707031 87.367188 215.382812 233.890625 130.746094 C 380.417969 46.109375 369.246094 46.109375 515.773438 130.746094 Z M 472.277344 196.839844 L 577.75 257.765625 L 577.75 492.1875 L 374.832031 609.40625 L 171.914062 492.1875 L 171.914062 257.765625 L 277.386719 196.839844 L 277.386719 431.265625 L 374.832031 487.550781 L 472.277344 431.265625 Z M 472.277344 196.839844 " fill-opacity="1" fill-rule="evenodd"/></svg>