<svg xmlns="http://www.w3.org/2000/svg" width="1563" height="1563" viewBox="0 0 1563 1563" version="1.1"><path d="" stroke="none" fill-rule="evenodd"/><path d="M 456.500 198.034 C 435.600 210.039, 366.750 249.763, 303.500 286.310 L 188.500 352.757 188.249 695.255 C 188.048 968.502, 188.250 1037.957, 189.249 1038.762 C 190.530 1039.795, 226.732 1060.741, 489.500 1212.489 C 634.597 1296.282, 727.511 1349.845, 763.413 1370.394 L 780.326 1380.074 796.913 1370.843 C 820.303 1357.827, 877.711 1324.805, 1037.500 1232.455 C 1113.950 1188.270, 1220.825 1126.534, 1275 1095.262 L 1373.500 1038.405 1373.751 695.809 L 1374.003 353.214 1262.251 288.671 C 1200.788 253.173, 1131.825 213.356, 1109 200.189 L 1067.500 176.248 1066.867 182.374 C 1066.519 185.743, 1066.172 339.700, 1066.096 524.500 L 1065.959 860.500 979.275 910.500 C 825.405 999.254, 781.699 1024.101, 779.985 1023.798 C 779.061 1023.634, 714.786 986.854, 637.152 942.065 L 496 860.629 495.930 520.065 C 495.891 332.754, 495.554 178.759, 495.180 177.853 C 494.618 176.493, 487.904 179.996, 456.500 198.034" stroke="none" fill-rule="evenodd"/></svg>